<?xml version="1.0" standalone="no"?><!DOCTYPE svg PUBLIC "-//W3C//DTD SVG 1.1//EN" "http://www.w3.org/Graphics/SVG/1.1/DTD/svg11.dtd"><svg t="1768274989086" class="icon" viewBox="0 0 1024 1024" version="1.1" xmlns="http://www.w3.org/2000/svg" p-id="5938" xmlns:xlink="http://www.w3.org/1999/xlink" width="200" height="200"><path d="M257.2 442.3h112.5v184H257.2z" fill="#0008D9" p-id="5939"></path><path d="M339.8 728.1H98.2V612h271.5v86.1c0.1 16.5-13.4 30-29.9 30z" fill="#2269F9" p-id="5940"></path><path d="M821.4 525.5c-1.2 0-2.3-0.1-3.5-0.3L217.4 420.4c-5.3-0.9-9.9-3.8-12.9-8.2s-4.3-9.7-3.3-14.9l34.1-195.1 640 111.8-34.2 195c-1.7 9.6-9.9 16.5-19.7 16.5z" fill="#F0CC37" p-id="5941"></path><path d="M243.3 213.7L863.6 322l-32.4 185.2c-0.8 4.8-5 8.3-9.8 8.3-0.6 0-1.2-0.1-1.8-0.2L219.1 410.5c-3.6-0.6-5.6-2.8-6.5-4.1-0.9-1.3-2.3-3.9-1.7-7.5l32.4-185.2M227 190.5l-35.8 204.9c-2.9 16.3 8.1 31.9 24.4 34.7L816.2 535c1.7 0.3 3.5 0.5 5.2 0.5 14.3 0 27-10.3 29.5-24.8l35.8-204.9L227 190.5z" fill="#101780" p-id="5942"></path><path d="M728.1 562.4c-1.2 0-2.3-0.1-3.5-0.3l-516.3-90.2c-5.3-0.9-9.9-3.8-12.9-8.2s-4.3-9.7-3.3-14.9l43.1-246.6 555.7 97-43.1 246.6c-1.7 9.6-10 16.6-19.7 16.6z" fill="#2269F9" p-id="5943"></path><path d="M243.3 213.7l536 93.6-41.4 236.8c-0.8 4.8-5 8.3-9.8 8.3-0.6 0-1.2-0.1-1.8-0.2L210.1 462c-5.4-0.9-9.1-6.1-8.1-11.6l41.3-236.7M227 190.5L182.2 447c-2.9 16.3 8.1 31.9 24.4 34.7l516.3 90.2c1.7 0.3 3.5 0.5 5.2 0.5 14.3 0 27-10.3 29.5-24.8L802.4 291 227 190.5z" fill="#101780" p-id="5944"></path><path d="M780.8 473.7L347.4 398c-83.9-14.7-140-94.5-125.4-178.4l5.1-29 737.3 128.8-5.1 29c-14.7 83.8-94.6 139.9-178.5 125.3z" fill="#0008D9" p-id="5945"></path><path d="M76.4 833.5h6.4c9.2 0 16.7-7.5 16.7-16.7V523.3c0-9.2-7.5-16.7-16.7-16.7h-6.4c-9.2 0-16.7 7.5-16.7 16.7v293.5c0 9.2 7.4 16.7 16.7 16.7z" fill="#101780" p-id="5946"></path><path d="M318.122 250.75l80.68 14.088-4.782 27.385-80.68-14.086z" fill="#FF8F19" p-id="5947"></path><path d="M313.5 689.6c-10.8 0-19.6-8.8-19.6-19.6s8.8-19.6 19.6-19.6 19.6 8.8 19.6 19.6-8.8 19.6-19.6 19.6z" fill="#2269F9" p-id="5948"></path><path d="M313.5 655.5c8 0 14.6 6.5 14.6 14.6s-6.5 14.6-14.6 14.6-14.6-6.5-14.6-14.6 6.6-14.6 14.6-14.6m0-10c-13.6 0-24.6 11-24.6 24.6 0 13.6 11 24.6 24.6 24.6 13.6 0 24.6-11 24.6-24.6 0-13.7-11-24.6-24.6-24.6z" fill="#101780" p-id="5949"></path></svg>